<svg width="35" height="39" viewBox="0 0 35 39" fill="none" xmlns="http://www.w3.org/2000/svg">
<path d="M34.4318 0L31.295 34.4446L17.1948 38.2762L3.1335 34.45L0 0H34.4318Z" fill="#264DE4"/>
<path d="M28.6096 32.2512L31.2902 2.81677H17.2159V35.3474L28.6096 32.2512Z" fill="#2965F1"/>
<path d="M7.18347 15.5938L7.56981 19.8189H17.2159V15.5938H7.18347Z" fill="#EBEBEB"/>
<path d="M17.2159 7.04199H17.201H6.40723L6.79907 11.2672H17.2159V7.04199Z" fill="#EBEBEB"/>
<path d="M17.2159 30.9627V26.5668L17.197 26.5717L12.3964 25.3011L12.0895 21.9314H9.75679H7.76245L8.36635 28.5655L17.1961 30.9681L17.2159 30.9627Z" fill="#EBEBEB"/>
<path d="M22.509 19.8189L22.0086 25.2986L17.201 26.5705V30.9662L26.0378 28.5656L26.1026 27.8518L27.1156 16.7284L27.2207 15.5938L27.9989 7.04199H17.201V11.2672H23.275L22.8828 15.5938H17.201V19.8189H22.509Z" fill="white"/>
</svg>
