<svg width="26" height="38" viewBox="0 0 26 38" fill="none" xmlns="http://www.w3.org/2000/svg">
<path d="M6.3125 37.125C9.797 37.125 12.625 34.353 12.625 30.9375V24.75H6.3125C2.828 24.75 0 27.522 0 30.9375C0 34.353 2.828 37.125 6.3125 37.125Z" fill="#0ACF83"/>
<path d="M0 18.5625C0 15.147 2.828 12.375 6.3125 12.375H12.625V24.75H6.3125C2.828 24.75 0 21.978 0 18.5625Z" fill="#A259FF"/>
<path d="M0 6.18749C0 2.772 2.828 0 6.3125 0H12.625V12.375H6.3125C2.828 12.375 0 9.60299 0 6.18749Z" fill="#F24E1E"/>
<path d="M12.625 0H18.9375C22.422 0 25.25 2.772 25.25 6.18749C25.25 9.60299 22.422 12.375 18.9375 12.375H12.625V0Z" fill="#FF7262"/>
<path d="M25.25 18.5625C25.25 21.978 22.422 24.75 18.9375 24.75C15.453 24.75 12.625 21.978 12.625 18.5625C12.625 15.147 15.453 12.375 18.9375 12.375C22.422 12.375 25.25 15.147 25.25 18.5625Z" fill="#1ABCFE"/>
</svg>
