<svg width="34" height="34" viewBox="0 0 34 34" fill="none" xmlns="http://www.w3.org/2000/svg">
<path d="M33.0318 15.2981L18.3326 0.633441C17.4866 -0.211147 16.1136 -0.211147 15.2665 0.633441L12.2142 3.67879L16.0863 7.54196C16.986 7.2386 18.0179 7.44211 18.7351 8.15772C19.4558 8.87792 19.6583 9.91617 19.3469 10.8168L23.0785 14.54C23.9814 14.2296 25.0231 14.4304 25.7441 15.151C26.7519 16.156 26.7519 17.785 25.7441 18.7907C24.7361 19.7966 23.1034 19.7966 22.0948 18.7907C21.3368 18.0336 21.1495 16.923 21.5333 15.9913L18.0533 12.5192L18.0529 21.6562C18.3051 21.7806 18.5355 21.945 18.7351 22.143C19.7429 23.148 19.7429 24.7771 18.7351 25.7836C17.7271 26.7889 16.0936 26.7889 15.087 25.7836C14.0793 24.7771 14.0793 23.1481 15.087 22.1431C15.3285 21.902 15.6155 21.7111 15.9315 21.5814V12.3593C15.6151 12.2304 15.3279 12.0394 15.087 11.7976C14.3235 11.0368 14.1399 9.91906 14.5311 8.98367L10.7142 5.17509L0.635197 15.2302C-0.211732 16.0756 -0.211732 17.4456 0.635197 18.2903L15.3347 32.9552C16.1809 33.7999 17.5536 33.7999 18.401 32.9552L33.0317 18.3584C33.8783 17.5134 33.8785 16.1427 33.0318 15.2981Z" fill="#DE4C36"/>
</svg>
