<svg width="41" height="40" viewBox="0 0 41 40" fill="none" xmlns="http://www.w3.org/2000/svg">
<path fill-rule="evenodd" clip-rule="evenodd" d="M20.1 0C31.2012 0 40.2 9.072 40.2 20.2649C40.2 29.2165 34.4474 36.8103 26.4657 39.4924C25.4466 39.692 25.0848 39.0591 25.0848 38.5196C25.0848 37.8515 25.1089 35.6695 25.1089 32.9578C25.1089 31.0682 24.4657 29.835 23.7441 29.2065C28.2204 28.7044 32.9238 26.9906 32.9238 19.2072C32.9238 16.9935 32.1439 15.1871 30.8535 13.7679C31.0625 13.256 31.7519 11.1948 30.6565 8.40399C30.6565 8.40399 28.9721 7.86098 25.135 10.4818C23.529 10.0332 21.8085 9.80741 20.1 9.7995C18.3915 9.80741 16.6729 10.0332 15.069 10.4818C11.2279 7.86098 9.53946 8.40399 9.53946 8.40399C8.44803 11.1948 9.13746 13.256 9.34449 13.7679C8.0601 15.1871 7.27419 16.9935 7.27419 19.2072C7.27419 26.9709 11.9675 28.711 16.4317 29.2229C15.8569 29.7288 15.3363 30.6214 15.1554 31.9319C14.0097 32.4497 11.0992 33.3459 9.30629 30.2488C9.30629 30.2488 8.243 28.3016 6.22497 28.1593C6.22497 28.1593 4.26522 28.1337 6.08828 29.3908C6.08828 29.3908 7.40483 30.0134 8.31938 32.3555C8.31938 32.3555 9.49926 35.9725 15.0911 34.747C15.1011 36.4409 15.1192 38.0373 15.1192 38.5196C15.1192 39.0552 14.7494 39.6821 13.7464 39.4943C5.75864 36.8161 0 29.2185 0 20.2649C0 9.072 9.00077 0 20.1 0Z" fill="#E5E5E5"/>
</svg>
