<svg width="41" height="41" viewBox="0 0 41 41" fill="none" xmlns="http://www.w3.org/2000/svg">
<g clip-path="url(#clip0_29_152)">
<path d="M20.2999 0C9.19784 0 0.199951 8.99789 0.199951 20.1C0.199951 31.2021 9.19784 40.2 20.2999 40.2C31.402 40.2 40.3999 31.2021 40.3999 20.1C40.3999 8.99789 31.402 0 20.2999 0ZM32.8467 32.6389C31.2136 34.2721 29.3214 35.5519 27.2093 36.4391C25.0266 37.3656 22.7025 37.8288 20.2999 37.8288C17.9052 37.8288 15.5812 37.3577 13.3906 36.4391C11.2785 35.544 9.37842 34.2642 7.75315 32.6389C6.12002 31.0058 4.84022 29.1136 3.953 27.0015C3.02651 24.8188 2.55542 22.4947 2.55542 20.1C2.55542 17.7053 3.02651 15.3812 3.94514 13.1906C4.84022 11.0786 6.12002 9.17848 7.7453 7.5532C9.38627 5.92008 11.2785 4.64027 13.3906 3.7452C15.5812 2.82656 17.9052 2.35547 20.2999 2.35547C22.6947 2.35547 25.0187 2.82656 27.2093 3.7452C29.3214 4.64027 31.2215 5.92008 32.8467 7.54535C34.4798 9.17848 35.7597 11.0707 36.6469 13.1828C37.5734 15.3655 38.0366 17.6896 38.0366 20.0921C38.0366 22.4869 37.5655 24.8109 36.6469 27.0015C35.7518 29.1136 34.472 31.0137 32.8467 32.6389Z" fill="#E5E5E5"/>
<path d="M14.6782 15.9701H10.7603V28.509H14.6782V15.9701Z" fill="#E5E5E5"/>
<path d="M12.6368 10.05C11.1921 10.05 10.2421 10.9843 10.2421 12.2249C10.2421 13.4419 11.1607 14.3998 12.5818 14.3998H12.6132C14.0893 14.3998 15.008 13.434 15.0001 12.2249C14.9687 10.9843 14.0815 10.05 12.6368 10.05Z" fill="#E5E5E5"/>
<path d="M25.3799 15.8523C23.1343 15.8523 21.7289 17.0771 21.4698 17.9408V15.9701H17.0651C17.12 17.0143 17.0651 28.509 17.0651 28.509H21.4698V21.7331C21.4698 21.3484 21.4541 20.9715 21.564 20.7046C21.8624 19.9508 22.514 19.1657 23.6839 19.1657C25.215 19.1657 25.9059 20.3277 25.9059 22.0236V28.509H30.3499V21.5368C30.3499 17.6582 28.1672 15.8523 25.3799 15.8523Z" fill="#E5E5E5"/>
</g>
<defs>
<clipPath id="clip0_29_152">
<rect width="40.2" height="40.2" fill="white" transform="translate(0.199951)"/>
</clipPath>
</defs>
</svg>
