<svg width="37" height="40" viewBox="0 0 37 40" fill="none" xmlns="http://www.w3.org/2000/svg">
<path d="M16.7066 0.423237C17.7101 -0.139807 19.0172 -0.14235 20.0199 0.423237C25.0642 3.21712 30.1102 6.00663 35.1537 8.80221C36.1023 9.32597 36.7368 10.3608 36.7272 11.4322V28.2413C36.7342 29.357 36.037 30.4166 35.0362 30.9285C30.0084 33.707 24.9832 36.4888 19.9563 39.2673C18.932 39.8414 17.5987 39.7972 16.6064 39.1761C15.099 38.3195 13.5891 37.4673 12.0817 36.6116C11.7736 36.4316 11.4264 36.2884 11.2089 35.9956C11.4011 35.7416 11.7449 35.7099 12.0243 35.599C12.6535 35.4029 13.2314 35.0881 13.8094 34.7826C13.9555 34.6846 14.134 34.7221 14.2741 34.8099C15.563 35.5343 16.8406 36.2797 18.1339 36.9972C18.4098 37.1533 18.6891 36.9461 18.9249 36.8172C23.8587 34.0839 28.7986 31.361 33.7315 28.6269C33.9143 28.5407 34.0154 28.3505 34.0005 28.1542C34.004 22.6093 34.0014 17.0633 34.0022 11.5184C34.0231 11.2957 33.8917 11.091 33.6863 10.9998C28.6759 8.23407 23.6682 5.46407 18.6587 2.6976C18.5719 2.63911 18.4691 2.60773 18.3638 2.60758C18.2585 2.60742 18.1555 2.63851 18.0686 2.69675C13.0591 5.46407 8.05222 8.23662 3.04274 11.0022C2.83805 11.0935 2.70068 11.2949 2.72504 11.5184C2.72591 17.0633 2.72504 22.6093 2.72504 28.1551C2.71636 28.2508 2.73781 28.3469 2.78652 28.4303C2.83523 28.5138 2.90886 28.5806 2.99748 28.6218C4.33428 29.3648 5.67281 30.1026 7.01048 30.8431C7.76407 31.2407 8.68934 31.477 9.51962 31.1724C10.2523 30.9148 10.7659 30.1819 10.7519 29.4194C10.7588 23.9068 10.7485 18.3933 10.7571 12.8816C10.7388 12.6368 10.9756 12.4347 11.2184 12.4577C11.8607 12.4534 12.5039 12.4492 13.1462 12.4594C13.4143 12.4534 13.5988 12.7169 13.5656 12.9635C13.563 18.511 13.5725 24.0586 13.5613 29.6061C13.563 31.0846 12.9434 32.6933 11.5482 33.4168C9.82938 34.2895 7.70497 34.1044 6.00694 33.2676C4.53695 32.5484 3.13413 31.6996 1.69023 30.9292C0.686832 30.4201 -0.00693905 29.3563 0.000124066 28.2414V11.4322C-0.0103985 10.3386 0.649354 9.285 1.62752 8.76886C6.65444 5.98812 11.6805 3.20525 16.7066 0.423237Z" fill="#8CC84B"/>
<path d="M21.0921 12.067C23.2845 11.9287 25.6316 11.985 27.6046 13.0437C29.1321 13.855 29.9789 15.5577 30.0059 17.2211C29.9632 17.4455 29.7239 17.5693 29.5054 17.5539C28.8693 17.553 28.233 17.5624 27.5969 17.5496C27.3271 17.5598 27.1702 17.316 27.1364 17.0821C26.9536 16.2862 26.5108 15.498 25.7465 15.1141C24.5733 14.5383 23.213 14.5673 21.9337 14.5793C20.9998 14.6279 19.9956 14.7072 19.2043 15.2455C18.5969 15.6532 18.4124 16.4764 18.6292 17.1393C18.8336 17.6153 19.3942 17.7689 19.8529 17.9105C22.495 18.5879 25.2949 18.5205 27.8866 19.4119C28.9597 19.7753 30.0093 20.4817 30.3766 21.5829C30.857 23.0589 30.6464 24.823 29.5752 26.0079C28.7064 26.9829 27.4411 27.5136 26.1791 27.8018C24.5002 28.1688 22.758 28.1781 21.053 28.0152C19.4498 27.836 17.7815 27.4232 16.5439 26.3525C15.4855 25.4518 14.9686 24.0483 15.02 22.6938C15.0322 22.465 15.2646 22.3055 15.4881 22.3243C16.1287 22.3192 16.7693 22.3175 17.4099 22.3251C17.6657 22.3072 17.8554 22.5239 17.8686 22.7603C17.9868 23.5186 18.2775 24.3145 18.9521 24.7641C20.254 25.5874 21.8876 25.531 23.3784 25.5541C24.6134 25.5004 25.9998 25.4841 27.0076 24.684C27.5394 24.2276 27.6969 23.4641 27.5532 22.8072C27.3976 22.2527 26.8057 21.9942 26.2974 21.8252C23.6891 21.0165 20.858 21.31 18.2749 20.3954C17.2262 20.0321 16.2122 19.3453 15.8093 18.2893C15.2471 16.7947 15.5047 14.9461 16.6883 13.8012C17.8423 12.6624 19.5082 12.2238 21.0921 12.0669V12.067Z" fill="#8CC84B"/>
</svg>
