<svg width="35" height="34" viewBox="0 0 35 34" fill="none" xmlns="http://www.w3.org/2000/svg">
<path d="M0 0H34.4318V33.1875H0V0Z" fill="url(#paint0_linear_49_740)"/>
<path d="M2.7384 2.63916H31.6937V30.5484H2.7384V2.63916Z" fill="url(#paint1_linear_49_740)"/>
<path d="M8.32079 9.35374C8.32079 9.35374 10.4978 9.29761 12.2899 9.29761C14.1007 9.29761 15.3919 9.71521 16.2588 10.449C17.0874 11.1425 17.6461 12.3246 17.6461 13.6704C17.6461 15.0161 17.2221 16.1172 16.4513 16.8915C15.4494 17.8906 14.282 18.482 12.2899 18.5638C11.7395 18.5864 11.2302 18.5918 11.2302 18.5918V22.9662H8.32068L8.32079 9.35374ZM11.2301 16.1682C11.5461 16.1984 11.7442 16.1838 12.2127 16.1783C13.7734 16.16 14.7365 15.2297 14.7365 13.8229C14.7365 12.5591 13.9424 11.5214 12.4441 11.4676C11.847 11.4462 11.2301 11.4676 11.2301 11.4676V16.1682Z" fill="url(#paint2_linear_49_740)"/>
<path d="M18.7564 19.9188C19.3427 20.2714 20.7264 20.7996 21.6696 20.7996C22.6333 20.7996 23.0312 20.4667 23.0312 19.9478C23.0312 19.4281 22.7169 18.8823 21.5225 18.4876C19.4062 17.7813 18.5889 16.9357 18.6101 15.7522C18.6101 13.8407 20.2443 12.4075 22.7796 12.4075C23.9739 12.4075 24.928 12.7902 25.5561 13.1016V15.3957C25.0947 15.1462 23.7644 14.5891 22.8845 14.5891C22.1088 14.5891 21.6691 14.9007 21.6691 15.4195C21.6691 15.8974 22.0674 16.1467 23.3245 16.5832C25.2728 17.2479 26.0901 18.2239 26.1108 19.7196C26.1108 21.6102 24.624 23.1135 21.6691 23.0223C20.6549 22.991 19.5314 22.5981 18.7561 22.1832L18.7564 19.9188Z" fill="url(#paint3_linear_49_740)"/>
<defs>
<linearGradient id="paint0_linear_49_740" x1="8.36751" y1="-1.73317" x2="21.1405" y2="25.802" gradientUnits="userSpaceOnUse">
<stop stop-color="#A0CBFF"/>
<stop offset="0.394" stop-color="#A0CBFE"/>
<stop offset="0.583" stop-color="#8EC2FC"/>
<stop offset="0.784" stop-color="#83BCFB"/>
<stop offset="1" stop-color="#7FBAFB"/>
</linearGradient>
<linearGradient id="paint1_linear_49_740" x1="13.0526" y1="3.03246" x2="20.2437" y2="27.4121" gradientUnits="userSpaceOnUse">
<stop stop-color="#090058"/>
<stop offset="1" stop-color="#070033"/>
</linearGradient>
<linearGradient id="paint2_linear_49_740" x1="4.26232" y1="-0.278505" x2="17.0352" y2="27.2563" gradientUnits="userSpaceOnUse">
<stop stop-color="#A0CBFF"/>
<stop offset="0.394" stop-color="#A0CBFE"/>
<stop offset="0.583" stop-color="#8EC2FC"/>
<stop offset="0.784" stop-color="#83BCFB"/>
<stop offset="1" stop-color="#7FBAFB"/>
</linearGradient>
<linearGradient id="paint3_linear_49_740" x1="11.7804" y1="-3.84799" x2="24.6039" y2="23.796" gradientUnits="userSpaceOnUse">
<stop stop-color="#A0CBFF"/>
<stop offset="0.394" stop-color="#A0CBFE"/>
<stop offset="0.583" stop-color="#8EC2FC"/>
<stop offset="0.784" stop-color="#83BCFB"/>
<stop offset="1" stop-color="#7FBAFB"/>
</linearGradient>
</defs>
</svg>
