<svg width="34" height="33" viewBox="0 0 34 33" fill="none" xmlns="http://www.w3.org/2000/svg">
<path d="M30.1562 6.41501C28.1212 3.832 25.3504 1.89853 22.1942 0.859153C19.0381 -0.180227 15.6384 -0.278836 12.4251 0.575796C9.21178 1.43043 6.3292 3.19991 4.14192 5.66046C1.95465 8.12101 0.560917 11.1621 0.137006 14.3991C-0.286905 17.6361 0.278042 20.9236 1.7604 23.8459C3.24275 26.7682 5.57593 29.1939 8.46485 30.8164C11.3538 32.4388 14.6687 33.185 17.9903 32.9607C21.3119 32.7364 24.4911 31.5515 27.1257 29.5561C34.4797 23.9853 35.8368 13.626 30.1556 6.41501H30.1562Z" fill="#FF6C37"/>
<path d="M22.5106 10.5136L15.4129 17.526L13.4071 15.5048C20.3928 8.65732 21.094 9.27606 22.5112 10.5136H22.5106Z" fill="white"/>
<path d="M15.4129 17.7181C15.35 17.7166 15.29 17.6922 15.2446 17.6495L13.2246 15.6696C13.1791 15.6234 13.1537 15.5618 13.1537 15.4976C13.1537 15.4334 13.1791 15.3718 13.2246 15.3256C20.112 8.57463 21.052 8.89071 22.679 10.3344C22.7063 10.3558 22.7281 10.3831 22.7427 10.4142C22.7573 10.4452 22.7643 10.4792 22.7632 10.5134C22.7737 10.5804 22.7474 10.649 22.6933 10.6923L15.5954 17.6501C15.5457 17.6948 15.4804 17.7193 15.4129 17.7186V17.7181ZM13.7575 15.5046L15.4129 17.1272L22.1462 10.5273C21.9137 10.2417 21.582 10.0502 21.2144 9.98927C20.8469 9.92839 20.4694 10.0025 20.1541 10.1973C18.9337 10.7335 16.97 12.3696 13.7575 15.5046Z" fill="#FF6C37"/>
<path d="M17.4471 19.4641L15.5112 17.5254L22.6091 10.6501C24.517 12.479 21.6833 15.5315 17.4471 19.4636V19.4641Z" fill="white"/>
<path d="M17.4472 19.7115C17.3851 19.7067 17.3261 19.6827 17.2788 19.6429L15.3009 17.7455C15.2713 17.675 15.2713 17.5958 15.3009 17.5253C15.2799 17.4674 15.2799 17.4042 15.3009 17.3464L22.3988 10.3891C22.4481 10.3437 22.5133 10.3184 22.581 10.3184C22.6488 10.3184 22.7139 10.3437 22.7633 10.3891C22.9932 10.5965 23.1748 10.85 23.2958 11.1323C23.4168 11.4146 23.4743 11.7191 23.4645 12.0252C23.4645 13.8814 21.3041 16.2187 17.6292 19.629C17.5801 19.6766 17.5155 19.7058 17.4466 19.7115H17.4472ZM15.8759 17.5253L17.4608 19.0783C20.2662 16.4796 22.9458 13.7984 22.9595 11.9834C22.9748 11.5987 22.845 11.2218 22.595 10.9249L15.8759 17.5253Z" fill="#FF6C37"/>
<path d="M13.4629 15.546L14.8658 16.9212C14.8748 16.9289 14.8819 16.9384 14.8869 16.9491C14.8918 16.9598 14.8943 16.9713 14.8943 16.983C14.8943 16.9947 14.8918 17.0063 14.8869 17.017C14.8819 17.0276 14.8748 17.0372 14.8658 17.0449L11.9058 17.6637C11.8461 17.6763 11.7837 17.6694 11.7283 17.6442C11.6729 17.6189 11.6274 17.5765 11.5988 17.5236C11.5703 17.4706 11.5601 17.4099 11.5699 17.3508C11.5798 17.2917 11.609 17.2373 11.6533 17.196L13.3787 15.5187C13.3787 15.5187 13.435 15.5187 13.4629 15.546Z" fill="white"/>
<path d="M11.8358 17.9379C11.7423 17.9368 11.6507 17.9122 11.5696 17.8664C11.4886 17.8206 11.4209 17.7553 11.3729 17.6765C11.319 17.5768 11.2994 17.4626 11.3172 17.3511C11.3349 17.2396 11.389 17.1367 11.4713 17.0578L13.1825 15.3665C13.2442 15.3125 13.3241 15.2826 13.4068 15.2826C13.4896 15.2826 13.5695 15.3125 13.6312 15.3665L15.0341 16.7417C15.1172 16.819 15.1499 16.9361 15.1183 17.0444C15.0867 17.1527 14.9942 17.2388 14.88 17.2645L11.92 17.8833L11.8358 17.9379ZM13.4071 15.8481L11.8222 17.4017L14.4455 16.8515L13.4071 15.8481Z" fill="#FF6C37"/>
<path d="M26.2846 6.64946C25.2693 5.68938 23.6743 5.64916 22.6096 6.5551C21.5449 7.46105 21.3629 9.01616 22.1919 10.1351C23.021 11.2539 24.5838 11.5674 25.7938 10.8569L23.8858 8.98677L26.2846 6.64946Z" fill="white"/>
<path d="M24.3908 11.4891C23.8075 11.4818 23.2393 11.3064 22.757 10.9847C22.2747 10.6631 21.8996 10.2094 21.6785 9.68032C21.4576 9.1516 21.3996 8.57098 21.5118 8.0103C21.624 7.44963 21.9014 6.93349 22.3098 6.52575C22.8714 5.98537 23.6269 5.68262 24.4139 5.68262C25.2009 5.68262 25.9565 5.98537 26.5181 6.52575C26.5718 6.5701 26.6023 6.63558 26.6023 6.70468C26.6021 6.73867 26.5946 6.77224 26.58 6.80311C26.5655 6.83398 26.5444 6.86143 26.5181 6.8836L24.2456 8.98733L25.971 10.6512C25.999 10.6774 26.02 10.7099 26.0322 10.7458C26.0444 10.7818 26.0474 10.8201 26.041 10.8575C26.0368 10.8935 26.0246 10.9283 26.0053 10.9592C25.9859 10.9901 25.9598 11.0165 25.9289 11.0364C25.4654 11.3204 24.9325 11.4771 24.3861 11.4902L24.3908 11.4891ZM24.3908 6.15399C23.3913 6.15915 22.497 6.7485 22.122 7.64929C21.7469 8.55008 21.951 9.587 22.6517 10.279C23.0002 10.6226 23.4465 10.855 23.932 10.9458C24.4176 11.0366 24.9198 10.9816 25.3729 10.7879L23.7175 9.16522C23.6911 9.14459 23.6699 9.11843 23.6553 9.08866C23.6407 9.05889 23.6331 9.02629 23.6331 8.99326C23.6331 8.96023 23.6407 8.92763 23.6553 8.89786C23.6699 8.86809 23.6911 8.84193 23.7175 8.8213L25.9058 6.66239C25.4708 6.33561 24.9388 6.15692 24.3908 6.15348V6.15399Z" fill="#FF6C37"/>
<path d="M26.3266 6.69116L23.9279 9.02846L25.8358 10.8986C26.0278 10.7906 26.2066 10.6613 26.3686 10.5134C26.8687 9.99536 27.1438 9.30712 27.136 8.59396C27.1281 7.88081 26.8379 7.19854 26.3266 6.69116Z" fill="white"/>
<path d="M25.7932 11.1044C25.7617 11.1061 25.7302 11.1008 25.701 11.089C25.6719 11.0771 25.6459 11.0589 25.6249 11.0359L23.7169 9.16571C23.6906 9.14508 23.6694 9.11892 23.6548 9.08915C23.6401 9.05938 23.6326 9.02678 23.6326 8.99375C23.6326 8.96072 23.6401 8.92812 23.6548 8.89835C23.6694 8.86858 23.6906 8.84242 23.7169 8.82179L26.1014 6.52573C26.1245 6.49169 26.1557 6.46377 26.1925 6.44446C26.2292 6.42515 26.2702 6.41504 26.3119 6.41504C26.3535 6.41504 26.3945 6.42515 26.4313 6.44446C26.468 6.46377 26.4992 6.49169 26.5223 6.52573C26.8022 6.79458 27.0246 7.11547 27.1764 7.46963C27.3282 7.82378 27.4064 8.20406 27.4064 8.58821C27.4064 8.97236 27.3282 9.35265 27.1764 9.7068C27.0246 10.061 26.8022 10.3819 26.5223 10.6507C26.3571 10.8224 26.1682 10.9704 25.961 11.0905C25.9088 11.1163 25.8485 11.1213 25.7927 11.1044H25.7932ZM24.2503 8.9873L25.8353 10.5409C25.9443 10.466 26.0475 10.3832 26.144 10.2934C26.61 9.83792 26.8724 9.2198 26.8737 8.57481C26.8747 7.99759 26.6601 7.43998 26.2703 7.00732L24.2503 8.9873Z" fill="#FF6C37"/>
<path d="M22.8053 10.8018C22.6153 10.6269 22.3645 10.5295 22.1038 10.5295C21.8432 10.5295 21.5923 10.6269 21.4024 10.8018L15.0483 17.0161L16.1004 18.0612L22.8195 12.2863C22.922 12.19 23.0032 12.0742 23.0583 11.946C23.1134 11.8178 23.1412 11.6799 23.1398 11.5407C23.1385 11.4016 23.1081 11.2643 23.0506 11.1371C22.9931 11.0099 22.9096 10.8956 22.8053 10.8013V10.8018Z" fill="white"/>
<path d="M16.0442 18.3094C15.9813 18.3079 15.9213 18.2834 15.8758 18.2408L14.8095 17.1956C14.7641 17.1495 14.7386 17.0878 14.7386 17.0237C14.7386 16.9595 14.7641 16.8979 14.8095 16.8517L21.1641 10.6503C21.3471 10.4712 21.5808 10.35 21.835 10.3026C22.0891 10.2552 22.3519 10.2837 22.5893 10.3845C22.8267 10.4852 23.0277 10.6536 23.1663 10.8676C23.3049 11.0817 23.3747 11.3317 23.3666 11.5852C23.3593 11.7572 23.3171 11.9261 23.2424 12.0819C23.1677 12.2377 23.062 12.3774 22.9316 12.4927L16.2125 18.2676C16.1636 18.3015 16.1036 18.3162 16.0442 18.3089V18.3094ZM15.3009 17.0162L16.0021 17.7174L22.5949 12.0936C22.758 11.9543 22.8553 11.7553 22.8616 11.5434C22.8679 11.3315 22.7827 11.1242 22.6233 10.9798C22.4761 10.8362 22.2768 10.7555 22.0691 10.7555C21.8614 10.7555 21.6621 10.8362 21.5149 10.9798L15.3009 17.0162Z" fill="#FF6C37"/>
<path d="M10.1247 24.0979C10.1067 24.1218 10.097 24.1507 10.097 24.1804C10.097 24.2101 10.1067 24.239 10.1247 24.2629L10.4051 25.4591C10.4163 25.5295 10.4056 25.6016 10.3745 25.666C10.3433 25.7304 10.2931 25.7841 10.2304 25.8201C10.1679 25.8559 10.0954 25.8714 10.0234 25.8642C9.95135 25.8571 9.88349 25.8277 9.82957 25.7804L7.90796 23.9654L13.8979 18.0476H15.9742L17.3771 19.4228C15.1887 21.2983 12.7485 22.8713 10.1247 24.0979Z" fill="white"/>
<path d="M9.99838 26.1183C9.83952 26.1152 9.68276 26.0513 9.57756 25.9394L7.74011 24.1383C7.71379 24.1177 7.69254 24.0915 7.67794 24.0618C7.66334 24.032 7.65576 23.9994 7.65576 23.9664C7.65576 23.9333 7.66334 23.9007 7.67794 23.871C7.69254 23.8412 7.71379 23.815 7.74011 23.7944L13.7716 17.8684C13.8054 17.8332 13.8496 17.8092 13.8979 17.7998H15.9878C16.0423 17.7809 16.1017 17.7809 16.1562 17.7998L17.5591 19.175C17.5858 19.1991 17.6061 19.2292 17.6183 19.2627C17.6305 19.2962 17.6342 19.3321 17.6291 19.3673C17.6301 19.4014 17.623 19.4354 17.6084 19.4664C17.5938 19.4974 17.5721 19.5248 17.5449 19.5462L17.4329 19.6426C15.2356 21.4382 12.8181 22.9578 10.2367 24.1662L10.5034 25.2799C10.524 25.3658 10.5248 25.4552 10.5057 25.5414C10.4866 25.6277 10.4481 25.7087 10.393 25.7785C10.3379 25.8483 10.2676 25.9052 10.1872 25.9449C10.1069 25.9847 10.0184 26.0064 9.92842 26.0085L9.99838 26.1183ZM8.28719 23.9594L9.9421 25.5955C9.95752 25.6089 9.97746 25.6164 9.99812 25.6164C10.0188 25.6164 10.0387 25.6089 10.0541 25.5955C10.0645 25.5814 10.07 25.5646 10.07 25.5473C10.07 25.5299 10.0645 25.5131 10.0541 25.499L9.77377 24.3028C9.75167 24.2169 9.76055 24.1262 9.7989 24.0461C9.83725 23.9659 9.90271 23.9012 9.98418 23.863C12.4962 22.6707 14.8513 21.184 16.9978 19.4353L15.8474 18.3077H13.9679L8.28719 23.9594Z" fill="#FF6C37"/>
<path d="M6.46347 25.3766L7.86641 24.0015L10.0268 26.1191L6.59025 25.8855C6.53125 25.881 6.47521 25.8583 6.43014 25.8207C6.38507 25.7831 6.35327 25.7325 6.33927 25.6762C6.32527 25.6198 6.32979 25.5605 6.35219 25.5068C6.37459 25.4531 6.41372 25.4077 6.464 25.3771L6.46347 25.3766Z" fill="white"/>
<path d="M10.0684 26.3251L6.64548 26.0916C6.44243 26.073 6.26779 25.9369 6.19625 25.7549C6.12471 25.5728 6.16837 25.3568 6.30882 25.2114L7.71175 23.8362C7.75883 23.7916 7.82173 23.7667 7.88719 23.7667C7.95264 23.7667 8.01554 23.7916 8.06262 23.8362L10.2088 25.94C10.2386 25.9799 10.2546 26.028 10.2546 26.0774C10.2546 26.1268 10.2386 26.1749 10.2088 26.2148C10.1764 26.2662 10.1268 26.305 10.0684 26.3246V26.3251ZM6.64548 25.5553L9.45083 25.7342L7.90797 24.3178L6.64548 25.5553Z" fill="#FF6C37"/>
<path d="M16.1704 18.2128L13.3367 18.6392L14.9779 17.0444L16.1704 18.2128Z" fill="white"/>
<path d="M13.3366 18.9007C13.2895 18.902 13.2431 18.8895 13.2032 18.8651C13.1632 18.8406 13.1315 18.8051 13.112 18.7631C13.0821 18.7232 13.066 18.6751 13.066 18.6257C13.066 18.5762 13.0821 18.5281 13.112 18.4882L14.739 16.8795C14.7884 16.834 14.8536 16.8087 14.9213 16.8087C14.989 16.8087 15.0542 16.834 15.1036 16.8795L16.2966 18.0479C16.3204 18.0849 16.3331 18.1279 16.3331 18.1716C16.3331 18.2154 16.3204 18.2583 16.2966 18.2954C16.2849 18.3406 16.2602 18.3814 16.2254 18.4132C16.1906 18.4449 16.1472 18.4661 16.1004 18.4743L13.2951 18.9007H13.3366ZM14.9778 17.4018L14.0662 18.2954L15.6375 18.0618L14.9778 17.4018Z" fill="#FF6C37"/>
<path d="M16.1704 18.2126L14.1925 18.4601C14.1396 18.4719 14.0842 18.4667 14.0346 18.4451C13.9849 18.4236 13.9437 18.387 13.9169 18.3407C13.8902 18.2944 13.8794 18.2409 13.8861 18.1881C13.8928 18.1353 13.9167 18.0861 13.9542 18.0476L14.9784 17.0437L16.1704 18.2126Z" fill="white"/>
<path d="M14.1362 18.7221C14.0446 18.7213 13.9547 18.6966 13.8759 18.6507C13.7971 18.6048 13.7321 18.5392 13.6875 18.4607C13.634 18.3666 13.6132 18.2579 13.6284 18.1512C13.6436 18.0444 13.6939 17.9455 13.7717 17.8693L14.7959 16.8654C14.8452 16.8199 14.9104 16.7946 14.9782 16.7946C15.0459 16.7946 15.1111 16.8199 15.1604 16.8654L16.353 18.0343C16.3884 18.0672 16.4134 18.1096 16.4248 18.1561C16.4362 18.2027 16.4336 18.2515 16.4173 18.2966C16.401 18.3418 16.3717 18.3813 16.3329 18.4104C16.2941 18.4395 16.2475 18.457 16.1988 18.4607L14.2351 18.7082L14.1362 18.7221ZM14.1362 18.2132L15.6233 18.0343L14.9642 17.3882L14.1226 18.2132H14.1362ZM26.3403 8.27204C26.3139 8.22865 26.2721 8.19628 26.2229 8.18107C26.1738 8.16586 26.1206 8.16888 26.0736 8.18954C26.0504 8.20107 26.0297 8.21705 26.0129 8.23654C25.9961 8.25602 25.9835 8.27861 25.9757 8.30297C25.9601 8.35213 25.9651 8.40535 25.9894 8.45096C26.0878 8.6536 26.0604 8.89336 25.9195 9.0697C25.902 9.08669 25.8882 9.10706 25.8792 9.12951C25.8701 9.15197 25.8659 9.17603 25.8669 9.20016C25.8674 9.24851 25.8861 9.29498 25.9195 9.33061C25.9555 9.34454 25.9955 9.34454 26.0315 9.33061C26.0642 9.33866 26.0985 9.33777 26.1306 9.32804C26.1628 9.31831 26.1917 9.30012 26.214 9.27544C26.3296 9.13681 26.4027 8.96899 26.425 8.79135C26.4474 8.6137 26.418 8.43349 26.3403 8.27152V8.27204Z" fill="#FF6C37"/>
</svg>
