<svg width="37" height="36" viewBox="0 0 37 36" fill="none" xmlns="http://www.w3.org/2000/svg">
<path d="M36.7273 0H0V36H36.7273V0Z" fill="#F7DF1E"/>
<path d="M24.6713 28.1251C25.4111 29.3091 26.3736 30.1794 28.0759 30.1794C29.5059 30.1794 30.4194 29.4788 30.4194 28.5108C30.4194 27.3508 29.4809 26.94 27.9068 26.2651L27.044 25.9023C24.5536 24.8623 22.8991 23.5594 22.8991 20.8051C22.8991 18.268 24.8713 16.3365 27.9535 16.3365C30.1478 16.3365 31.7253 17.0851 32.8621 19.0451L30.1746 20.7365C29.5829 19.6965 28.9445 19.2868 27.9535 19.2868C26.9426 19.2868 26.3019 19.9154 26.3019 20.7365C26.3019 21.7514 26.9432 22.1623 28.4239 22.7908L29.2867 23.1531C32.2191 24.3857 33.8747 25.6423 33.8747 28.4674C33.8747 31.5131 31.4338 33.1817 28.1558 33.1817C24.9506 33.1817 22.8799 31.6845 21.8667 29.7223L24.6713 28.1251ZM12.4796 28.4183C13.0218 29.3611 13.515 30.1583 14.7008 30.1583C15.8346 30.1583 16.5499 29.7234 16.5499 28.0325V16.5297H20.0011V28.0783C20.0011 31.5811 17.9059 33.1754 14.8477 33.1754C12.0844 33.1754 10.4841 31.7737 9.67029 30.0854L12.4796 28.4183Z" fill="black"/>
</svg>
