<svg width="37" height="22" viewBox="0 0 37 22" fill="none" xmlns="http://www.w3.org/2000/svg">
<path d="M18.3636 0C13.4665 0 10.406 2.3994 9.18159 7.19774C11.0182 4.79834 13.1606 3.89891 15.609 4.49853C17.0061 4.84066 18.0045 5.83418 19.1099 6.93349C20.9103 8.72426 22.9939 10.7968 27.5457 10.7968C32.4423 10.7968 35.5033 8.39743 36.7273 3.59864C34.8911 5.99804 32.7487 6.89792 30.2999 6.2983C28.9033 5.95617 27.9048 4.96265 26.7994 3.86334C24.9991 2.07257 22.9149 0 18.3636 0ZM9.18159 10.7968C4.28493 10.7968 1.22394 13.1962 0 17.995C1.83613 15.5956 3.9786 14.6957 6.42739 15.2958C7.82401 15.6384 8.82245 16.6315 9.92789 17.7303C11.7282 19.5211 13.8123 21.5941 18.3636 21.5941C23.2608 21.5941 26.3213 19.1947 27.5457 14.3959C25.7091 16.7953 23.5666 17.6952 21.1183 17.0951C19.7212 16.7535 18.7228 15.7595 17.6173 14.6606C15.817 12.8699 13.7333 10.7968 9.18159 10.7968Z" fill="#06B6D4"/>
</svg>
