<svg width="35" height="46" viewBox="0 0 35 46" fill="none" xmlns="http://www.w3.org/2000/svg">
<path d="M11.0892 35.3899C11.0892 35.3899 9.30519 36.4068 12.3589 36.7509C16.0584 37.1646 17.9491 37.1053 22.026 36.3489C22.026 36.3489 23.0979 37.0077 24.5947 37.5783C15.4555 41.4176 3.91073 37.3559 11.0892 35.3899ZM9.9724 30.3798C9.9724 30.3798 7.97144 31.8316 11.0274 32.1414C14.9793 32.541 18.1002 32.5737 23.5006 31.5545C23.5006 31.5545 24.2476 32.2967 25.4221 32.7027C14.3721 35.8698 2.06454 32.9524 9.9724 30.3798Z" fill="white"/>
<path d="M19.3871 21.881C21.6391 24.4223 18.7955 26.7092 18.7955 26.7092C18.7955 26.7092 24.5134 23.8159 21.8874 20.1926C19.4349 16.814 17.5539 15.135 27.736 9.3468C27.736 9.3468 11.7536 13.2594 19.3871 21.8809" fill="#E76F00"/>
<path d="M31.4745 39.0959C31.4745 39.0959 32.7947 40.1621 30.0204 40.987C24.7452 42.5535 8.06413 43.0265 3.43016 41.0494C1.76443 40.3392 4.88826 39.3534 5.87083 39.1465C6.89557 38.9287 7.48127 38.9693 7.48127 38.9693C5.62873 37.6901 -4.49269 41.4811 2.34013 42.5666C20.974 45.5287 36.3078 41.2329 31.4745 39.0959ZM11.947 25.1888C11.947 25.1888 3.46206 27.1643 8.94234 27.8815C11.2562 28.1852 15.869 28.1166 20.1657 27.7636C23.6772 27.4734 27.2032 26.856 27.2032 26.856C27.2032 26.856 25.965 27.3758 25.0692 27.9753C16.4528 30.1966 -0.192593 29.1633 4.5994 26.8911C8.65199 24.971 11.9471 25.1888 11.9471 25.1888H11.947ZM27.1682 33.5284C35.9273 29.067 31.8774 24.7797 29.0507 25.3573C28.3578 25.4986 28.0489 25.621 28.0489 25.621C28.0489 25.621 28.3062 25.2262 28.7974 25.0552C34.3895 23.1281 38.6902 30.7389 26.9922 33.7532C26.9922 33.7534 27.1277 33.6346 27.1682 33.5284Z" fill="white"/>
<path d="M21.8875 0.000132494C21.8875 0.000132494 26.7384 4.75672 17.2866 12.0706C9.70735 17.9378 15.5583 21.283 17.2835 25.1051C12.8593 21.1925 9.61246 17.7482 11.7908 14.5426C14.9877 9.83674 23.8446 7.5553 21.8875 0" fill="#E76F00"/>
<path d="M12.8077 45.6175C21.2153 46.1451 34.126 45.3249 34.4318 41.4254C34.4318 41.4254 33.8441 42.9038 27.4834 44.0777C20.3074 45.4013 11.4568 45.2468 6.2074 44.3985C6.20753 44.3985 7.28202 45.2703 12.8079 45.6175" fill="white"/>
</svg>
