<svg width="400" height="400" viewBox="0 0 400 400" fill="none" xmlns="http://www.w3.org/2000/svg">
<g clip-path="url(#clip0_49_1477)">
<path d="M200 400C89.4492 400 0 310.418 0 200C0 89.4492 89.5818 0 200 0C310.551 0 400 89.5818 400 200C400.132 310.551 310.551 400 200 400Z" fill="#EF4444"/>
<mask id="mask0_49_1477" style="mask-type:alpha" maskUnits="userSpaceOnUse" x="0" y="0" width="401" height="400">
<path d="M200 400C89.4492 400 0 310.418 0 200C0 89.4492 89.5818 0 200 0C310.551 0 400 89.5818 400 200C400.132 310.551 310.551 400 200 400Z" fill="#F7C0B5"/>
</mask>
<g mask="url(#mask0_49_1477)">
<path d="M311.732 368.406C310.8 369.071 309.732 369.738 308.8 370.406C307.732 371.071 306.8 371.739 305.733 372.271C304.8 372.806 304 373.338 303.066 373.871C302.933 374.006 302.8 374.006 302.666 374.138C299.6 376.006 296.4 377.738 293.2 379.338C292.266 379.871 291.2 380.406 290.266 380.806C290.266 380.806 290.133 380.939 290 380.939C288.933 381.471 287.866 382.006 286.8 382.538C284.666 383.606 282.4 384.539 280.266 385.471C279.2 386.006 278 386.406 276.933 386.806C275.866 387.206 274.666 387.738 273.6 388.138C272.533 388.538 271.333 389.071 270.266 389.471C270.266 389.471 270.266 389.471 270.133 389.471C269.066 389.871 267.866 390.271 266.8 390.671C264.4 391.471 261.866 392.271 259.466 393.071C258.666 393.338 257.733 393.606 256.933 393.871C254.4 394.671 251.866 395.338 249.333 395.871C248.4 396.138 247.466 396.271 246.4 396.538C244 397.071 241.466 397.606 239.066 398.138C238.533 398.271 238.133 398.271 237.6 398.406C236.8 398.538 235.866 398.671 235.066 398.806C233.866 398.938 232.8 399.206 231.6 399.338C231.066 399.471 230.533 399.471 230 399.606C229.333 399.738 228.533 399.871 227.733 399.871C225.6 400.138 223.333 400.406 221.2 400.671C220.533 400.806 219.733 400.806 219.066 400.939H218.933C218 401.071 217.066 401.071 216.133 401.206C215.2 401.339 214.266 401.338 213.333 401.338C212.8 401.338 212.133 401.471 211.6 401.471C210.533 401.471 209.6 401.606 208.666 401.606C207.333 401.606 206.133 401.739 204.8 401.739C203.466 401.739 202.266 401.739 200.933 401.739C200 401.739 199.066 401.739 198.133 401.739C142 400.939 91.3332 377.071 55.3332 339.206C55.3332 339.206 55.3332 339.071 55.1997 339.071C59.3332 330.938 74.6665 316.271 90.6665 304.138C110.933 288.805 139.6 279.338 139.6 279.338C139.6 279.338 158.4 276.272 228.133 290.805C281.333 302.005 304 347.471 311.732 368.406Z" fill="#FEE4BF"/>
<path d="M242.933 327.739C240.133 341.471 222 349.606 191.466 337.339C154 322.139 139.6 279.339 139.6 279.339C137.6 248.672 132.933 222.405 132.933 222.405C176.266 218.672 227.466 269.339 227.466 269.339L233.333 294.405C233.866 296.539 234.933 298.405 236.533 299.739C239.333 304.539 244.8 318.939 242.933 327.739Z" fill="#FEE4BF"/>
<path d="M236.533 299.872C211.066 298.539 192.266 294.805 172.133 258.672C189.2 273.739 209.333 279.472 230.533 282.139L233.333 294.405C233.866 296.672 234.933 298.539 236.533 299.872Z" fill="#EFBD9C"/>
<path d="M289.2 139.205C291.6 150.405 292.8 159.472 286.266 189.338C279.733 219.205 292.266 249.072 260.8 276.405C239.6 294.805 202.533 298.272 172.933 278.138C162.933 271.338 153.733 261.872 146.266 249.472C140.4 239.738 133.6 230.538 126 222.138C115.466 210.672 102.8 187.605 109.066 146.805C119.2 80.4053 184.933 72.8053 223.733 80.1385C262.533 87.472 282.666 109.605 289.2 139.205Z" fill="#FEE4BF"/>
<path d="M161.6 191.338C161.6 191.338 157.466 171.339 138 173.739C121.2 175.872 115.333 216.138 153.466 227.338" fill="#FEE4BF"/>
<path d="M152.267 209.072C152.267 209.072 147.467 206.005 148 200.672C148.8 194.405 148 190.539 145.067 189.339C137.733 186.272 136.267 194.805 136.533 195.872" stroke="#423232" stroke-width="2.67" stroke-miterlimit="10" stroke-linecap="round" stroke-linejoin="round"/>
<path d="M254 222.005C254 222.005 259.066 222.272 263.866 216.538C266.533 213.338 268.8 209.338 267.333 208.138C265.866 206.805 241.733 210.538 240.133 213.738C238.533 216.938 247.866 222.005 254 222.005Z" fill="#EFBD9C"/>
<path d="M258 177.205C258 177.205 258.266 189.872 266.4 204.005C270 210.272 264.533 220.539 252.667 222.272" stroke="#423232" stroke-width="2.67" stroke-miterlimit="10" stroke-linecap="round" stroke-linejoin="round"/>
<path d="M278.933 251.205C278.933 251.339 278.933 251.339 278.933 251.205C278.8 251.339 278.8 251.339 278.933 251.205C275.6 259.872 270.133 268.139 260.8 276.272C239.6 294.672 202.533 298.139 172.933 278.005C169.6 275.739 166.4 273.205 163.333 270.405C161.2 267.739 159.333 264.939 157.733 262.005C148.133 244.005 152.267 227.205 152.267 227.205C152.267 227.205 157.733 227.339 164.267 240.139C169.733 250.805 190.8 250.405 199.466 230.405C209.066 208.139 233.066 217.872 238.533 220.005C244 222.139 252.533 222.139 252.533 222.139C274.133 221.872 267.6 236.405 269.866 244.405C273.2 255.339 278.933 251.205 278.933 251.205Z" fill="#52473B"/>
<path d="M116.353 278.26C116.353 278.26 135.639 270.587 139.206 270.322L139.47 273.365C139.47 273.365 124.147 279.98 123.222 281.039C122.297 282.097 116.353 278.26 116.353 278.26Z" fill="#7E5D6D"/>
<path d="M354.388 449.997H20.4516C20.4516 449.997 22.4331 388.606 42.5117 344.812C57.7025 311.735 94.1609 289.903 120.712 280.377C128.242 277.731 134.054 274.82 139.47 273.365C139.47 274.026 139.866 278.922 139.866 279.451C139.866 279.451 161.794 309.751 210.669 309.354C239.994 309.222 231.804 290.168 231.804 290.168C234.314 289.639 236.692 288.977 239.07 288.183C239.862 287.919 245.41 285.67 246.071 285.405C263.111 289.903 283.982 302.605 314.231 328.009C348.314 356.72 354.388 449.997 354.388 449.997Z" fill="black"/>
<mask id="mask1_49_1477" style="mask-type:alpha" maskUnits="userSpaceOnUse" x="20" y="273" width="335" height="177">
<path d="M354.388 449.997H20.4516C20.4516 449.997 22.4331 388.606 42.5117 344.812C57.7025 311.735 94.1609 289.903 120.712 280.377C128.242 277.731 134.054 274.82 139.47 273.365C139.47 274.026 139.866 278.922 139.866 279.451C139.866 279.451 161.794 309.751 210.669 309.354C239.994 309.222 231.804 290.168 231.804 290.168C234.314 289.639 236.692 288.977 239.07 288.183C239.862 287.919 245.41 285.67 246.071 285.405C263.111 289.903 283.982 302.605 314.231 328.009C348.314 356.72 354.388 449.997 354.388 449.997Z" fill="#E89D6B"/>
</mask>
<g mask="url(#mask1_49_1477)">
<path d="M89.0092 270.454C96.2744 270.719 99.9732 270.851 107.238 270.719C113.711 274.556 116.882 276.408 123.486 279.98C130.223 279.583 133.658 279.319 140.394 278.525C147.131 281.7 150.434 283.288 157.17 286.331C164.039 285.273 167.474 284.611 174.211 283.288C181.08 285.934 184.646 287.125 191.515 289.374C198.384 287.654 201.819 286.596 208.688 284.611C215.821 286.463 219.387 287.39 226.521 288.977C233.39 286.463 236.824 285.273 243.693 282.494C250.958 283.685 254.657 284.214 261.922 285.14C268.659 281.965 272.093 280.377 278.83 276.937C286.228 277.334 289.926 277.467 297.324 277.599C303.929 273.63 307.231 271.645 313.837 267.543C322.157 266.882 326.252 266.485 334.575 265.559C333.914 268.734 333.649 270.322 333.123 273.497C326.252 274.291 322.686 274.688 315.818 275.217C309.08 279.451 305.778 281.568 298.909 285.537C291.379 285.537 287.681 285.405 280.151 285.008C273.282 288.448 269.848 290.168 262.979 293.343C255.581 292.417 251.883 291.888 244.486 290.83C237.617 293.608 234.05 294.931 227.181 297.313C219.916 295.725 216.349 294.799 209.216 292.947C202.347 294.931 198.781 295.99 191.912 297.71C184.91 295.328 181.344 294.137 174.343 291.491C167.474 292.814 164.039 293.476 157.038 294.534C150.17 291.491 146.867 290.036 139.998 286.728C133.129 287.39 129.695 287.654 122.958 288.051C116.353 284.479 113.051 282.627 106.578 278.657C100.502 278.657 97.4634 278.657 91.387 278.393C90.4621 275.35 90.0661 273.762 89.0092 270.454Z" fill="black"/>
<path d="M87.16 304.06C94.4252 304.193 97.9917 304.193 105.389 303.928C111.994 307.633 115.296 309.354 121.901 312.794C128.638 312.265 131.94 311.868 138.677 310.942C145.414 313.985 148.849 315.44 155.717 318.219C162.454 317.028 165.757 316.234 172.626 314.779C179.627 317.16 183.193 318.351 190.194 320.468C196.931 318.483 200.366 317.557 207.103 315.308C214.236 317.028 217.934 317.822 225.068 319.277C231.805 316.631 235.107 315.308 241.844 312.397C249.241 313.455 252.808 313.852 260.205 314.514C266.81 311.206 270.112 309.486 276.717 305.913C284.114 306.177 287.945 306.177 295.342 306.045C301.815 302.076 304.985 299.959 311.458 295.725C319.781 294.931 324.006 294.534 332.329 293.343C331.8 296.519 331.668 298.107 331.141 301.15C324.138 302.076 320.705 302.473 313.837 303.134C307.231 307.5 304.061 309.619 297.456 313.72C289.926 313.852 286.096 313.852 278.566 313.588C271.83 317.16 268.527 318.88 261.79 322.32C254.393 321.659 250.562 321.262 243.165 320.203C236.428 323.114 232.993 324.437 226.124 327.083C218.859 325.628 215.16 324.834 207.895 323.114C201.026 325.363 197.724 326.289 190.855 328.274C183.722 326.157 180.155 324.966 173.154 322.585C166.285 324.04 162.983 324.834 156.114 326.025C149.245 323.246 145.678 321.791 138.809 318.615C132.072 319.409 128.638 319.806 121.901 320.468C115.164 317.028 111.862 315.175 105.257 311.471C99.1806 311.603 96.1424 311.735 90.1981 311.603C88.8772 308.692 88.3489 307.103 87.16 304.06Z" fill="black"/>
<path d="M85.3108 337.139C92.444 337.006 96.1425 336.874 103.408 336.609C110.013 340.182 113.447 341.902 120.184 345.077C126.789 344.283 130.091 343.886 136.696 342.828C143.565 345.739 146.999 347.062 154 349.708C160.605 348.252 163.907 347.591 170.644 345.871C177.778 348.12 181.344 349.179 188.477 351.163C195.082 349.046 198.384 347.988 204.989 345.739C212.254 347.326 215.953 347.988 223.218 349.311C229.823 346.532 233.126 345.209 239.598 342.166C246.996 342.96 250.694 343.357 258.092 343.886C264.564 340.446 267.867 338.726 274.207 335.022C281.737 335.022 285.435 335.022 292.965 334.757C299.305 330.655 302.476 328.539 308.683 324.305C317.006 323.379 321.234 322.849 329.554 321.526C329.16 324.569 329.028 326.157 328.763 329.332C321.763 330.391 318.326 330.92 311.326 331.714C304.986 336.08 301.683 338.329 295.342 342.431C287.681 342.695 283.85 342.828 276.321 342.695C269.716 346.4 266.546 348.12 259.941 351.692C252.411 351.163 248.713 350.899 241.183 349.972C234.578 353.015 231.276 354.471 224.539 357.249C217.142 356.059 213.443 355.265 206.178 353.677C199.441 356.059 196.139 357.117 189.402 359.234C182.137 357.249 178.57 356.191 171.437 353.942C164.7 355.662 161.398 356.455 154.661 357.779C147.66 355.132 144.093 353.677 137.224 350.766C130.487 351.825 127.185 352.222 120.448 353.015C113.579 349.708 110.277 347.988 103.54 344.415C97.5957 344.68 94.5572 344.812 88.6132 344.945C87.292 341.902 86.6317 340.314 85.3108 337.139Z" fill="black"/>
<path d="M83.3292 370.083C90.4624 369.819 94.0289 369.554 101.162 369.025C107.899 372.465 111.334 374.052 118.202 377.095C124.675 376.169 127.978 375.64 134.582 374.449C141.583 377.228 145.15 378.551 152.151 380.932C158.624 379.345 161.926 378.551 168.531 376.699C175.664 378.815 179.363 379.742 186.496 381.462C192.969 379.212 196.271 378.022 202.744 375.64C210.141 376.963 213.707 377.625 221.105 378.683C227.578 375.772 230.748 374.317 237.221 371.274C244.75 371.935 248.449 372.2 255.978 372.597C262.318 369.157 265.489 367.305 271.83 363.6C279.359 363.468 283.19 363.335 290.719 362.939C296.928 358.837 299.966 356.72 306.042 352.354C314.495 351.295 318.723 350.634 327.046 349.179C326.782 352.222 326.782 353.809 326.517 356.852C319.517 358.043 316.08 358.572 309.08 359.499C302.872 363.997 299.702 366.114 293.493 370.348C285.832 370.745 282.001 370.877 274.339 371.009C267.999 374.846 264.696 376.699 258.356 380.139C250.826 379.742 246.996 379.609 239.466 378.948C232.994 382.123 229.691 383.579 223.218 386.489C215.689 385.431 211.99 384.769 204.593 383.446C197.988 385.96 194.686 387.151 188.081 389.4C180.816 387.68 177.117 386.622 169.852 384.637C163.247 386.489 159.945 387.283 153.34 388.871C146.207 386.357 142.64 385.166 135.507 382.388C128.902 383.579 125.6 384.108 118.995 385.034C111.994 381.859 108.559 380.271 101.823 376.831C95.8784 377.36 92.9723 377.492 87.028 377.757C85.5748 374.714 84.7821 373.126 83.3292 370.083Z" fill="black"/>
<path d="M81.48 402.631C88.4809 402.102 92.0477 401.837 99.1806 401.043C106.05 404.219 109.484 405.806 116.485 408.717C122.958 407.659 126.128 406.997 132.601 405.674C139.734 408.188 143.301 409.511 150.434 411.76C156.906 410.04 160.077 409.114 166.417 407.129C173.682 408.982 177.381 409.908 184.646 411.495C190.987 409.114 194.158 407.923 200.63 405.277C208.027 406.468 211.726 406.997 219.255 407.923C225.596 404.88 228.634 403.425 234.975 400.249C242.504 400.779 246.335 400.911 253.865 401.175C260.073 397.603 263.111 395.751 269.32 391.914C276.981 391.649 280.68 391.517 288.342 390.988C294.286 386.754 297.324 384.637 303.268 380.271C311.723 379.08 315.951 378.419 324.403 376.831C324.271 379.874 324.271 381.329 324.138 384.372C317.138 385.695 313.705 386.225 306.703 387.283C300.626 391.782 297.588 394.031 291.512 398.265C283.85 398.926 279.887 399.059 272.226 399.323C266.017 403.16 262.847 405.145 256.638 408.717C248.977 408.585 245.146 408.452 237.485 407.923C231.144 411.231 227.974 412.686 221.633 415.729C214.104 414.803 210.273 414.274 202.744 413.083C196.271 415.729 193.101 416.92 186.628 419.302C179.23 417.714 175.532 416.788 168.134 414.936C161.662 416.92 158.359 417.846 151.887 419.566C144.622 417.317 141.055 416.126 133.79 413.48C127.317 414.803 124.015 415.465 117.542 416.523C110.541 413.612 106.974 412.025 99.9732 408.849C94.1612 409.511 91.255 409.776 85.4427 410.172C83.8575 407.262 83.0652 405.674 81.48 402.631Z" fill="black"/>
<path d="M134.45 291.756C134.45 291.756 141.583 318.086 196.667 324.702C251.883 331.185 252.412 296.387 240.259 276.805C228.106 257.223 144.226 261.987 135.243 271.38C126.26 280.774 134.45 291.756 134.45 291.756Z" fill="white"/>
</g>
<path d="M85.8388 449.997L79.8945 400.911" stroke="black" stroke-width="2.67" stroke-miterlimit="10" stroke-linecap="round" stroke-linejoin="round"/>
<path d="M316.477 384.24C316.477 384.24 312.514 393.899 313.705 403.557C314.892 413.216 318.326 427.372 313.44 449.997" stroke="black" stroke-width="2.67" stroke-miterlimit="10" stroke-linecap="round" stroke-linejoin="round"/>
<path d="M116.353 278.26C118.863 277.467 123.222 278.26 124.543 280.51C129.694 288.977 142.111 313.72 147.263 362.806C151.358 401.175 145.15 470.24 145.15 470.24L17.0171 464.154C17.0171 464.154 20.8478 398.926 32.076 355.132C43.04 312.662 71.8366 293.608 116.353 278.26Z" fill="#353535"/>
<path d="M249.241 286.331C249.241 286.331 290.058 363.203 278.17 465.874H366.409C366.409 465.874 365.88 396.148 346.068 351.957C326.252 307.766 256.902 283.023 256.902 283.023C256.902 283.023 252.543 285.14 249.241 286.331Z" fill="#353535"/>
<path d="M249.241 286.331L246.07 285.405C246.07 285.405 250.694 283.156 252.675 281.833L253.864 281.171C253.864 281.171 260.205 284.082 262.45 285.14C264.696 286.199 254.657 291.094 254.657 291.094C254.657 291.094 249.637 286.463 249.241 286.331Z" fill="#7E5D6D"/>
<path d="M145.81 350.502C145.81 350.502 141.319 337.668 131.148 326.289C121.769 315.705 104.596 299.297 103.408 295.593C101.162 288.051 115.164 259.605 137.092 249.682C137.092 249.814 137.092 249.947 137.092 250.079C137.092 250.211 137.092 250.343 137.092 250.608C137.092 250.873 137.092 251.137 137.224 251.402C137.224 251.799 137.356 252.196 137.356 252.593C137.356 252.857 137.356 252.99 137.488 253.254C138.413 261.193 139.206 270.057 139.866 279.451V279.583C139.866 279.583 133.79 281.568 138.149 311.868C139.338 319.145 143.829 332.111 145.81 350.502Z" fill="#444444"/>
<path d="M272.358 354.603C272.358 354.603 263.507 320.203 259.148 309.222C254.789 298.371 246.599 286.067 246.203 285.405C251.355 283.023 255.978 279.98 260.073 276.408C264.168 272.836 267.47 269.263 270.244 265.691C273.547 269.396 293.229 291.623 295.342 303.796C297.72 317.292 280.548 323.114 272.358 354.603Z" fill="#444444"/>
<path d="M215.295 181.615C215.295 181.749 215.295 181.882 215.295 181.882L215.162 185.615C215.029 188.815 212.362 191.215 209.162 191.082C205.962 190.949 203.562 188.149 203.829 185.082L203.962 181.349C203.962 180.682 204.229 179.882 204.495 179.349L215.162 179.882C215.162 180.415 215.295 180.949 215.295 181.615Z" fill="#423232"/>
<path d="M271.028 184.549L270.895 188.015C270.762 190.949 268.228 193.215 265.295 193.082C262.362 192.949 260.095 190.415 260.228 187.482L260.362 184.015C260.362 183.349 260.495 182.682 260.762 182.149L270.762 182.549C271.028 183.215 271.028 183.882 271.028 184.549Z" fill="#423232"/>
<path d="M228.628 163.348C231.562 163.748 233.828 160.682 232.762 157.748C232.228 156.148 231.295 154.682 229.828 153.748C225.295 150.948 208.362 150.682 199.428 157.082C191.562 162.948 215.295 161.482 228.628 163.348Z" fill="#423232"/>
<path d="M265.561 164.815C263.161 164.815 261.695 161.748 262.895 159.215C263.561 157.882 264.495 156.682 265.828 156.015C269.961 154.015 281.028 155.215 285.961 162.015C290.361 168.015 276.628 164.682 265.561 164.815Z" fill="#423232"/>
<path d="M223.962 180.148L215.028 179.748L204.362 179.348L201.962 179.215" stroke="#423232" stroke-width="2.67" stroke-miterlimit="10" stroke-linecap="round" stroke-linejoin="round"/>
<path d="M276.628 182.815L270.762 182.549L260.762 182.149H260.362" stroke="#423232" stroke-width="2.67" stroke-miterlimit="10" stroke-linecap="round" stroke-linejoin="round"/>
<path d="M246.159 237.492C246.292 239.625 244.692 243.358 241.759 246.025C226.692 236.825 219.892 241.625 219.892 241.625C214.559 233.492 215.759 222.425 228.692 230.825C237.759 236.559 243.226 237.492 246.159 237.492Z" fill="#423232"/>
<path d="M241.759 246.025C238.559 248.825 233.759 250.558 227.226 247.892C224.159 246.692 221.759 244.292 219.892 241.625C219.892 241.625 226.692 236.825 241.759 246.025Z" fill="#FE9DAB"/>
<path d="M248.692 236.958C248.692 236.958 243.092 240.025 228.692 230.825C211.492 219.759 214.959 242.958 227.092 247.892C239.759 253.092 246.292 241.758 246.159 237.492" stroke="#423232" stroke-width="2.67" stroke-miterlimit="10" stroke-linecap="round" stroke-linejoin="round"/>
<path d="M219.892 241.625C219.892 241.625 226.692 236.825 241.759 246.025" stroke="#423232" stroke-width="2.67" stroke-miterlimit="10" stroke-linecap="round" stroke-linejoin="round"/>
<path d="M306.931 147.771C303.198 159.371 295.065 170.171 289.331 176.571C292.931 156.304 291.865 148.304 289.731 138.837C289.065 135.904 288.265 133.104 287.331 130.304C266.398 150.704 230.531 130.571 230.531 130.571C230.531 130.571 222.931 136.837 209.598 135.371C195.331 133.904 191.465 125.104 191.465 125.104C187.598 152.037 162.131 141.771 166.798 168.571C168.131 175.904 168.131 182.971 161.865 190.304C160.798 186.571 155.598 171.371 138.531 173.504C122.398 175.504 116.265 212.837 149.598 225.637C149.198 238.037 129.465 269.104 130.131 234.437C130.265 227.371 109.998 227.904 98.9314 204.571C94.1314 194.437 95.4649 184.971 97.5981 178.171C99.7314 171.637 99.5981 164.571 97.4649 158.037C95.0649 150.437 93.1981 138.971 97.5981 125.104C105.065 101.371 121.065 95.9038 125.198 93.1038C129.331 90.3038 127.998 69.7705 163.065 58.3038C185.731 50.8373 209.998 63.7705 215.065 62.8373C220.131 61.9037 255.598 38.5705 282.931 60.5705C309.332 81.9038 299.465 107.104 299.465 107.104C299.465 107.104 315.997 119.771 306.931 147.771Z" fill="#52473B"/>
<path d="M146.186 195.756C146.186 195.756 135.478 194.158 136.281 209.078C136.683 216.671 136.683 220.801 136.549 222.932C136.415 224.398 137.352 225.73 138.69 226.263C140.297 226.929 142.037 226.263 142.84 224.664C144.044 222.533 145.383 219.602 145.383 217.204C145.383 213.207 149.666 209.611 149.666 209.611C149.666 209.611 145.784 206.28 146.186 195.756Z" fill="white"/>
<path d="M178.577 452.597C177.506 451.4 135.478 379.862 141.769 352.951C146.052 334.434 140.431 313.12 135.478 294.337C133.471 286.61 131.597 279.416 130.526 273.022C128.652 261.965 129.991 251.441 134.542 241.716C139.494 230.792 138.691 221.334 138.691 221.2L141.368 220.934C141.368 221.334 142.171 231.325 136.951 242.782C132.668 251.974 131.463 262.098 133.203 272.622C134.274 278.883 136.148 286.077 138.155 293.804C143.242 312.852 148.863 334.569 144.446 353.751C138.557 379.329 180.451 450.868 180.718 451.132L178.577 452.597Z" fill="white"/>
<path d="M136.683 216.804C136.817 219.735 136.683 221.733 136.683 222.932C136.549 224.398 137.486 225.73 138.825 226.263C140.431 226.929 142.171 226.263 142.974 224.664C144.178 222.533 145.517 219.602 145.517 217.204C145.517 217.071 145.517 216.804 145.517 216.671C142.706 217.737 139.494 218.536 136.683 216.804Z" fill="#E5E5E5"/>
<path d="M262.632 305.394C261.695 311.52 261.561 321.246 261.293 332.569C260.892 354.419 247.909 439.542 241.618 452.997L239.209 451.932C245.232 438.877 258.215 354.151 258.617 332.569C258.884 321.246 259.018 311.388 259.955 304.994C261.963 291.539 260.49 281.415 259.687 277.151C260.089 276.752 260.49 276.486 260.892 276.086C261.293 275.819 261.561 275.42 261.963 275.153C262.766 278.617 265.041 289.674 262.632 305.394Z" fill="white"/>
</g>
</g>
<defs>
<clipPath id="clip0_49_1477">
<rect width="400" height="400" fill="white"/>
</clipPath>
</defs>
</svg>
