<svg width="37" height="36" viewBox="0 0 37 36" fill="none" xmlns="http://www.w3.org/2000/svg">
<path d="M33.8296 27.7439C31.8314 27.6943 30.2826 27.8931 28.9837 28.4398C28.609 28.5888 28.0094 28.589 27.9594 29.0613C28.1593 29.2601 28.1843 29.5833 28.3592 29.8565C28.6592 30.3535 29.1834 31.0246 29.6581 31.3728C30.1826 31.7703 30.7073 32.1679 31.2566 32.5159C32.2309 33.1124 33.3301 33.4603 34.2793 34.0569C34.8291 34.4046 35.3782 34.8523 35.9278 35.225C36.2026 35.4235 36.3774 35.747 36.7273 35.8711V35.7967C36.5523 35.5728 36.5023 35.2498 36.3276 35.0013C36.078 34.7527 35.8279 34.529 35.5781 34.2804C34.8538 33.3113 33.9546 32.4662 32.9804 31.7703C32.1811 31.2235 30.4324 30.4779 30.1077 29.5583C30.1077 29.5583 30.0826 29.5335 30.0578 29.5087C30.6072 29.459 31.2566 29.2601 31.7814 29.111C32.6306 28.8871 33.4049 28.937 34.2793 28.7133C34.6789 28.6138 35.0786 28.4896 35.4782 28.3653V28.1417C35.0288 27.6943 34.704 27.0979 34.2294 26.6753C32.9554 25.5815 31.5564 24.5129 30.1077 23.6183C29.3333 23.1211 28.334 22.798 27.5098 22.3756C27.2103 22.2263 26.7105 22.1519 26.5357 21.9033C26.0859 21.3566 25.8361 20.6359 25.5115 19.9896C24.7873 18.6225 24.0877 17.1066 23.4631 15.6652C23.0137 14.6958 22.7389 13.7264 22.1893 12.8318C19.6164 8.60663 16.8187 6.04669 12.5224 3.53633C11.5981 3.01448 10.499 2.79078 9.32499 2.5175C8.70073 2.4925 8.07604 2.44293 7.45163 2.41793C7.05192 2.24393 6.6522 1.7718 6.30246 1.54809C4.87891 0.653258 1.20669 -1.28512 0.157593 1.27481C-0.516922 2.8902 1.15687 4.48073 1.73117 5.30114C2.15616 5.8727 2.70547 6.51883 3.00526 7.1651C3.18013 7.58737 3.22995 8.03507 3.40483 8.48235C3.80468 9.57561 4.17913 10.7937 4.70389 11.8128C4.97869 12.3347 5.27834 12.8814 5.62808 13.3537C5.82794 13.6269 6.17755 13.7514 6.25264 14.1986C5.90303 14.6958 5.8779 15.4415 5.6779 16.0627C4.77869 18.8712 5.12859 22.3507 6.40238 24.4135C6.80195 25.0346 7.75127 26.402 9.02521 25.8799C10.1494 25.4326 9.89958 24.016 10.2241 22.7733C10.2993 22.4747 10.2493 22.2761 10.3991 22.0773V22.1271C10.7488 22.8228 11.0984 23.4941 11.4232 24.19C12.1976 25.4076 13.5464 26.6753 14.6704 27.5204C15.2701 27.9676 15.7447 28.7381 16.4941 29.0115V28.9368H16.444C16.2941 28.7131 16.0693 28.6138 15.8696 28.4397C15.42 27.9926 14.9203 27.4457 14.5706 26.9486C13.5217 25.5566 12.5972 24.0158 11.7729 22.4251C11.3734 21.6549 11.0235 20.8098 10.6989 20.0393C10.5488 19.7408 10.5488 19.2937 10.2992 19.1447C9.92442 19.6914 9.37496 20.1636 9.10016 20.8346C8.62578 21.9033 8.57568 23.2206 8.4008 24.5874C8.30087 24.6125 8.3507 24.5874 8.30073 24.6374C7.50159 24.4382 7.22679 23.6183 6.92686 22.9223C6.1774 21.1577 6.05249 18.3244 6.70217 16.2864C6.87704 15.7645 7.6265 14.1242 7.32672 13.6271C7.17683 13.1548 6.67704 12.8814 6.40238 12.5087C6.07776 12.0364 5.72787 11.4401 5.50317 10.918C4.9036 9.52618 4.60382 7.98522 3.95443 6.5934C3.65465 5.94713 3.13031 5.27629 2.70547 4.67973C2.23096 4.00875 1.70634 3.53633 1.3316 2.74106C1.20684 2.46778 1.03182 2.02037 1.23168 1.72209C1.28164 1.52324 1.38143 1.44881 1.58142 1.3991C1.90619 1.12553 2.83053 1.47352 3.15501 1.62266C4.07934 1.99522 4.85364 2.3435 5.62808 2.86535C5.97769 3.11391 6.35242 3.58618 6.80195 3.71047H7.32658C8.126 3.88432 9.02507 3.76018 9.77453 3.98375C11.0986 4.40616 12.2974 5.02758 13.3717 5.6987C16.644 7.76151 19.3415 10.6943 21.1652 14.1986C21.465 14.77 21.5897 15.2923 21.8645 15.8886C22.3893 17.1066 23.0387 18.3492 23.563 19.5422C24.0877 20.7102 24.5872 21.9033 25.3366 22.8727C25.7113 23.3944 27.21 23.668 27.8845 23.9414C28.3841 24.165 29.1586 24.364 29.6081 24.6372C30.4574 25.1589 31.3066 25.7558 32.106 26.3272C32.5057 26.6255 33.7546 27.2469 33.8296 27.7439Z" fill="white"/>
<path d="M8.35051 6.14575C7.92596 6.14575 7.62632 6.19575 7.32654 6.27018V6.31989H7.3765C7.5765 6.71759 7.92596 6.99102 8.17564 7.33886C8.37564 7.73643 8.55037 8.13427 8.75037 8.53198C8.77521 8.50698 8.80019 8.48226 8.80019 8.48226C9.15008 8.23356 9.32481 7.836 9.32481 7.23944C9.17492 7.06559 9.14994 6.89159 9.02503 6.71759C8.87528 6.46889 8.55037 6.34475 8.35051 6.14575Z" fill="white"/>
</svg>
